<?xml version="1.0" encoding="utf-8"?>
<!-- Generator: Adobe Illustrator 25.3.1, SVG Export Plug-In . SVG Version: 6.00 Build 0)  -->
<svg version="1.1" id="Layer_1" xmlns="http://www.w3.org/2000/svg" xmlns:xlink="http://www.w3.org/1999/xlink" x="0px" y="0px"
	 viewBox="0 0 111.6 122.9" style="enable-background:new 0 0 111.6 122.9;" xml:space="preserve">
<style type="text/css">
	.st0{fill-rule:evenodd;clip-rule:evenodd;fill:#FFFFFF;}
</style>
<path class="st0" d="M79.9,65.7c13.8,0,25,11.3,24.9,25.1c0,4.8-1.4,9.5-4,13.5l10.8,11.8l-7.5,6.8l-10.4-11.5
	c-11.5,7.7-27,4.7-34.7-6.8s-4.7-27,6.8-34.7C70,67.1,74.9,65.6,79.9,65.7z M37.2,65.9c-1.5-0.1-2.7-1.3-2.6-2.8
	c-0.1-1.5,1.1-2.8,2.6-2.8c0,0,0,0,0,0h15.4c1.5,0.1,2.6,1.3,2.6,2.8c0.1,1.5-1.1,2.8-2.6,2.8c0,0,0,0,0,0H37.2z M22.4,57.2
	c3.1,0,5.7,2.5,5.7,5.7s-2.5,5.7-5.7,5.7s-5.7-2.5-5.7-5.7l0,0C16.8,59.8,19.3,57.2,22.4,57.2z M24.4,38.6c0.8-0.8,2-0.8,2.8,0
	c0,0,0,0,0,0c0.8,0.8,0.8,2.1,0,2.9l-2,2l2,2c0.8,0.8,0.8,2,0,2.8c0,0,0,0,0,0c-0.8,0.8-2,0.8-2.8,0c0,0,0,0,0,0l-2-2l-2,2
	c-0.8,0.8-2,0.8-2.8,0c0,0,0,0,0,0c-0.8-0.8-0.8-2.1,0-2.9l2-2l-2-2c-0.8-0.8-0.8-2.1,0-2.9c0.8-0.8,2.1-0.8,2.9,0l0,0l2,2
	L24.4,38.6L24.4,38.6z M16.9,21.5c1-0.7,2.5-0.4,3.2,0.6l1.1,1.4l4-5.1c0.8-1,2.2-1.1,3.2-0.3c1,0.8,1.1,2.2,0.3,3.2l-5.9,7.3
	c-0.2,0.2-0.3,0.4-0.5,0.5c-1,0.7-2.5,0.4-3.2-0.6l-2.8-3.9C15.5,23.6,15.8,22.2,16.9,21.5L16.9,21.5z M83.4,17.3h9.3
	c3.7,0,6.6,3,6.7,6.6v30.9c-0.2,2.1-5.3,2.1-5.8,0V23.9c0-0.3-0.1-0.5-0.3-0.7c-0.2-0.2-0.4-0.3-0.7-0.3h-9.3v31.8
	c-0.5,1.9-4.8,2.2-5.7,0V6.7c0-0.2-0.1-0.5-0.3-0.7c-0.2-0.2-0.4-0.3-0.7-0.3h-70C6.4,5.7,6.2,5.8,6,6C5.8,6.2,5.7,6.4,5.7,6.7v79.1
	c0,0.3,0.1,0.5,0.3,0.7c0.2,0.2,0.4,0.3,0.7,0.3h38.1c2.9,0.3,3,5.3,0,5.7H21.7v10.6c0,0.5,0.4,0.9,0.9,0.9c0,0,0,0,0,0h22.1
	c2.1,0.2,2.8,5,0,5.7H22.6c-1.8,0-3.5-0.7-4.7-2c-1.3-1.2-2-2.9-2-4.7V92.4H6.7c-3.7,0-6.6-3-6.7-6.7V6.7C0,4.9,0.7,3.2,2,2
	c1.2-1.3,2.9-2,4.7-2h70c1.8,0,3.5,0.7,4.7,2c1.3,1.2,2,2.9,2,4.7L83.4,17.3L83.4,17.3z M37.2,26.4c-1.5-0.1-2.7-1.3-2.6-2.8
	c-0.1-1.5,1.1-2.8,2.6-2.8c0,0,0,0,0,0h26.7c1.5,0.1,2.7,1.3,2.6,2.8c0.1,1.5-1.1,2.8-2.6,2.8c0,0,0,0,0,0H37.2z M37.2,46.2
	c-1.5-0.1-2.7-1.3-2.6-2.8c-0.1-1.5,1.1-2.8,2.6-2.8c0,0,0,0,0,0h26.7c1.5,0.1,2.7,1.3,2.6,2.8c0.1,1.5-1.1,2.8-2.6,2.8c0,0,0,0,0,0
	H37.2z M70.4,93c-0.1-0.1-0.2-0.3-0.3-0.4c-0.1-0.2-0.2-0.3-0.3-0.5c-0.7-1.6,0-3.5,1.6-4.2c1-0.4,2.1-0.4,3,0.2
	c0.2,0.1,0.3,0.2,0.5,0.4l0,0c0.9,0.8,1.2,1,2.1,1.9l0.8,0.7l6.8-7.3c2.9-3,7.4,1.4,4.6,4.4l-8.5,9.1l-0.4,0.4
	c-1.2,1.2-3.1,1.3-4.4,0.2l0,0c-0.2-0.2-0.4-0.4-0.7-0.6c-0.5-0.5-1.1-0.9-1.6-1.4C72.4,94.8,71.6,94.2,70.4,93L70.4,93z M79.9,70.9
	c11,0,19.9,8.9,19.8,19.9c0,11-8.9,19.9-19.9,19.8c-11,0-19.9-8.9-19.8-19.9c0,0,0,0,0,0C60,79.8,68.9,70.9,79.9,70.9
	C79.9,70.9,79.9,70.9,79.9,70.9L79.9,70.9z"/>
</svg>
